<?xml version="1.0" encoding="UTF-8" standalone="no"?>
<!DOCTYPE svg PUBLIC "-//W3C//DTD SVG 1.1//EN"
 "http://www.w3.org/Graphics/SVG/1.1/DTD/svg11.dtd">
<!-- Generated by graphviz version 2.43.0 (0)
 -->
<!-- Title: azure_topology Pages: 1 -->
<svg width="2021pt" height="626pt"
 viewBox="0.00 0.00 2020.60 625.60" xmlns="http://www.w3.org/2000/svg" xmlns:xlink="http://www.w3.org/1999/xlink">
<g id="graph0" class="graph" transform="scale(1 1) rotate(0) translate(28.8 596.8)">
<title>azure_topology</title>
<polygon fill="#0d1117" stroke="transparent" points="-28.8,28.8 -28.8,-596.8 1991.8,-596.8 1991.8,28.8 -28.8,28.8"/>
<text text-anchor="middle" x="981.5" y="-546.4" font-family="Helvetica,sans-Serif" font-size="22.00" fill="#e6edf3">Azure Private&#45;by&#45;Default Topology — ref&#45;webapp&#45;sql + Cosmos + APIM</text>
<text text-anchor="middle" x="981.5" y="-522.4" font-family="Helvetica,sans-Serif" font-size="22.00" fill="#e6edf3">4 envs (RG&#45;per&#45;env) + shared RG · private endpoints everywhere · self&#45;hosted ADO agents</text>
<g id="clust1" class="cluster">
<title>cluster_shared</title>
<path fill="#0d1117" stroke="#e3b341" stroke-width="2" d="M639,-158C639,-158 1667,-158 1667,-158 1673,-158 1679,-164 1679,-170 1679,-170 1679,-285 1679,-285 1679,-291 1673,-297 1667,-297 1667,-297 639,-297 639,-297 633,-297 627,-291 627,-285 627,-285 627,-170 627,-170 627,-164 633,-158 639,-158"/>
<text text-anchor="middle" x="1153" y="-281" font-family="Helvetica,sans-Serif" font-size="15.00" fill="#e3b341">rg&#45;refapp&#45;shared &#160;(platform&#45;owned)</text>
</g>
<g id="clust2" class="cluster">
<title>cluster_dns</title>
<path fill="#0d1117" stroke="#39c5cf" stroke-width="2" stroke-dasharray="5,2" d="M816,-166C816,-166 1659,-166 1659,-166 1665,-166 1671,-172 1671,-178 1671,-178 1671,-248 1671,-248 1671,-254 1665,-260 1659,-260 1659,-260 816,-260 816,-260 810,-260 804,-254 804,-248 804,-248 804,-178 804,-178 804,-172 810,-166 816,-166"/>
<text text-anchor="middle" x="1237.5" y="-246.4" font-family="Helvetica,sans-Serif" font-size="12.00" fill="#39c5cf">Centralized Private DNS Zones &#160;(linked to all 4 env VNets)</text>
</g>
<g id="clust3" class="cluster">
<title>cluster_dev</title>
<path fill="#0d1117" stroke="#58a6ff" stroke-width="2" d="M20,-85C20,-85 607,-85 607,-85 613,-85 619,-91 619,-97 619,-97 619,-492 619,-492 619,-498 613,-504 607,-504 607,-504 20,-504 20,-504 14,-504 8,-498 8,-492 8,-492 8,-97 8,-97 8,-91 14,-85 20,-85"/>
<text text-anchor="middle" x="313.5" y="-488" font-family="Helvetica,sans-Serif" font-size="15.00" fill="#58a6ff">rg&#45;refapp&#45;dev &#160;&#160;· &#160;&#160;VNet 10.10.0.0/16</text>
</g>
<g id="clust4" class="cluster">
<title>cluster_dev_vnet</title>
<path fill="#0d1117" stroke="#1f6feb" stroke-width="2" d="M28,-158C28,-158 599,-158 599,-158 605,-158 611,-164 611,-170 611,-170 611,-459 611,-459 611,-465 605,-471 599,-471 599,-471 28,-471 28,-471 22,-471 16,-465 16,-459 16,-459 16,-170 16,-170 16,-164 22,-158 28,-158"/>
<text text-anchor="middle" x="313.5" y="-458.2" font-family="Helvetica,sans-Serif" font-size="11.00" fill="#58a6ff">VNet</text>
</g>
<g id="clust5" class="cluster">
<title>cluster_dev_app</title>
<path fill="#0d1117" stroke="#238636" stroke-width="2" d="M229,-331C229,-331 416,-331 416,-331 422,-331 428,-337 428,-343 428,-343 428,-431 428,-431 428,-437 422,-443 416,-443 416,-443 229,-443 229,-443 223,-443 217,-437 217,-431 217,-431 217,-343 217,-343 217,-337 223,-331 229,-331"/>
<text text-anchor="middle" x="322.5" y="-431" font-family="Helvetica,sans-Serif" font-size="10.00" fill="#3fb950">snet&#45;app&#45;service &#160;10.10.0.0/24</text>
<text text-anchor="middle" x="322.5" y="-420" font-family="Helvetica,sans-Serif" font-size="10.00" fill="#3fb950">(delegated: Microsoft.Web/serverFarms)</text>
</g>
<g id="clust6" class="cluster">
<title>cluster_dev_pe</title>
<path fill="#0d1117" stroke="#8957e5" stroke-width="2" d="M162,-166C162,-166 432,-166 432,-166 438,-166 444,-172 444,-178 444,-178 444,-244 444,-244 444,-250 438,-256 432,-256 432,-256 162,-256 162,-256 156,-256 150,-250 150,-244 150,-244 150,-178 150,-178 150,-172 156,-166 162,-166"/>
<text text-anchor="middle" x="297" y="-244" font-family="Helvetica,sans-Serif" font-size="10.00" fill="#bc8cff">snet&#45;private&#45;endpoints &#160;10.10.1.0/24</text>
</g>
<g id="clust7" class="cluster">
<title>cluster_dev_agent</title>
<path fill="#0d1117" stroke="#9e6a03" stroke-width="2" d="M448,-331C448,-331 591,-331 591,-331 597,-331 603,-337 603,-343 603,-343 603,-431 603,-431 603,-437 597,-443 591,-443 591,-443 448,-443 448,-443 442,-443 436,-437 436,-431 436,-431 436,-343 436,-343 436,-337 442,-331 448,-331"/>
<text text-anchor="middle" x="519.5" y="-431" font-family="Helvetica,sans-Serif" font-size="10.00" fill="#e3b341">snet&#45;ado&#45;agents &#160;10.10.2.0/24</text>
<text text-anchor="middle" x="519.5" y="-420" font-family="Helvetica,sans-Serif" font-size="10.00" fill="#e3b341">(delegated: ContainerInstance)</text>
</g>
<g id="clust8" class="cluster">
<title>cluster_dev_apim</title>
<path fill="#0d1117" stroke="#da3633" stroke-width="2" d="M36,-331C36,-331 197,-331 197,-331 203,-331 209,-337 209,-343 209,-343 209,-431 209,-431 209,-437 203,-443 197,-443 197,-443 36,-443 36,-443 30,-443 24,-437 24,-431 24,-431 24,-343 24,-343 24,-337 30,-331 36,-331"/>
<text text-anchor="middle" x="116.5" y="-431" font-family="Helvetica,sans-Serif" font-size="10.00" fill="#ff7b72">snet&#45;apim &#160;10.10.3.0/24</text>
<text text-anchor="middle" x="116.5" y="-420" font-family="Helvetica,sans-Serif" font-size="10.00" fill="#ff7b72">(VNet INJECTION — internal mode)</text>
</g>
<g id="clust9" class="cluster">
<title>cluster_qa</title>
<path fill="#0d1117" stroke="#30363d" d="M708,-327C708,-327 1046,-327 1046,-327 1052,-327 1058,-333 1058,-339 1058,-339 1058,-419 1058,-419 1058,-425 1052,-431 1046,-431 1046,-431 708,-431 708,-431 702,-431 696,-425 696,-419 696,-419 696,-339 696,-339 696,-333 702,-327 708,-327"/>
<text text-anchor="middle" x="877" y="-416.6" font-family="Helvetica,sans-Serif" font-size="13.00" fill="#58a6ff">rg&#45;refapp&#45;qa &#160;&#160;· &#160;&#160;VNet 10.20.0.0/16</text>
</g>
<g id="clust10" class="cluster">
<title>cluster_stage</title>
<path fill="#0d1117" stroke="#30363d" d="M1083,-331C1083,-331 1330,-331 1330,-331 1336,-331 1342,-337 1342,-343 1342,-343 1342,-415 1342,-415 1342,-421 1336,-427 1330,-427 1330,-427 1083,-427 1083,-427 1077,-427 1071,-421 1071,-415 1071,-415 1071,-343 1071,-343 1071,-337 1077,-331 1083,-331"/>
<text text-anchor="middle" x="1206.5" y="-412.6" font-family="Helvetica,sans-Serif" font-size="13.00" fill="#58a6ff">rg&#45;refapp&#45;stage &#160;&#160;· &#160;&#160;VNet 10.30.0.0/16</text>
</g>
<g id="clust11" class="cluster">
<title>cluster_prod</title>
<path fill="#0d1117" stroke="#30363d" d="M1394,-331C1394,-331 1634,-331 1634,-331 1640,-331 1646,-337 1646,-343 1646,-343 1646,-415 1646,-415 1646,-421 1640,-427 1634,-427 1634,-427 1394,-427 1394,-427 1388,-427 1382,-421 1382,-415 1382,-415 1382,-343 1382,-343 1382,-337 1388,-331 1394,-331"/>
<text text-anchor="middle" x="1514" y="-412.6" font-family="Helvetica,sans-Serif" font-size="13.00" fill="#58a6ff">rg&#45;refapp&#45;prod &#160;&#160;· &#160;&#160;VNet 10.40.0.0/16</text>
</g>
<g id="clust12" class="cluster">
<title>cluster_legend</title>
<path fill="#0d1117" stroke="#30363d" d="M1699,-8C1699,-8 1943,-8 1943,-8 1949,-8 1955,-14 1955,-20 1955,-20 1955,-413 1955,-413 1955,-419 1949,-425 1943,-425 1943,-425 1699,-425 1699,-425 1693,-425 1687,-419 1687,-413 1687,-413 1687,-20 1687,-20 1687,-14 1693,-8 1699,-8"/>
<text text-anchor="middle" x="1821" y="-411.4" font-family="Helvetica,sans-Serif" font-size="12.00" fill="#e6edf3">Legend — connectivity mechanisms</text>
</g>
<!-- acr -->
<g id="node1" class="node">
<title>acr</title>
<path fill="#3d2e00" stroke="#e3b341" stroke-width="1.2" d="M775,-210C775,-210 647,-210 647,-210 641,-210 635,-204 635,-198 635,-198 635,-186 635,-186 635,-180 641,-174 647,-174 647,-174 775,-174 775,-174 781,-174 787,-180 787,-186 787,-186 787,-198 787,-198 787,-204 781,-210 775,-210"/>
<text text-anchor="middle" x="711" y="-195.2" font-family="Helvetica,sans-Serif" font-size="11.00" fill="#e6edf3">Shared ACR</text>
<text text-anchor="middle" x="711" y="-183.2" font-family="Helvetica,sans-Serif" font-size="11.00" fill="#e6edf3">ado&#45;agent + app images</text>
</g>
<!-- dns_sql -->
<g id="node2" class="node">
<title>dns_sql</title>
<path fill="#06303a" stroke="#39c5cf" stroke-width="1.2" d="M1651,-210C1651,-210 1473,-210 1473,-210 1467,-210 1461,-204 1461,-198 1461,-198 1461,-186 1461,-186 1461,-180 1467,-174 1473,-174 1473,-174 1651,-174 1651,-174 1657,-174 1663,-180 1663,-186 1663,-186 1663,-198 1663,-198 1663,-204 1657,-210 1651,-210"/>
<text text-anchor="middle" x="1562" y="-189.2" font-family="Helvetica,sans-Serif" font-size="11.00" fill="#e6edf3">privatelink.database.windows.net</text>
</g>
<!-- dns_web -->
<g id="node3" class="node">
<title>dns_web</title>
<path fill="#06303a" stroke="#39c5cf" stroke-width="1.2" d="M1423.5,-210C1423.5,-210 1268.5,-210 1268.5,-210 1262.5,-210 1256.5,-204 1256.5,-198 1256.5,-198 1256.5,-186 1256.5,-186 1256.5,-180 1262.5,-174 1268.5,-174 1268.5,-174 1423.5,-174 1423.5,-174 1429.5,-174 1435.5,-180 1435.5,-186 1435.5,-186 1435.5,-198 1435.5,-198 1435.5,-204 1429.5,-210 1423.5,-210"/>
<text text-anchor="middle" x="1346" y="-189.2" font-family="Helvetica,sans-Serif" font-size="11.00" fill="#e6edf3">privatelink.azurewebsites.net</text>
</g>
<!-- dns_cosmos -->
<g id="node4" class="node">
<title>dns_cosmos</title>
<path fill="#06303a" stroke="#39c5cf" stroke-width="1.2" d="M1219,-210C1219,-210 1043,-210 1043,-210 1037,-210 1031,-204 1031,-198 1031,-198 1031,-186 1031,-186 1031,-180 1037,-174 1043,-174 1043,-174 1219,-174 1219,-174 1225,-174 1231,-180 1231,-186 1231,-186 1231,-198 1231,-198 1231,-204 1225,-210 1219,-210"/>
<text text-anchor="middle" x="1131" y="-189.2" font-family="Helvetica,sans-Serif" font-size="11.00" fill="#e6edf3">privatelink.documents.azure.com</text>
</g>
<!-- dns_apim -->
<g id="node5" class="node">
<title>dns_apim</title>
<path fill="#06303a" stroke="#39c5cf" stroke-width="1.2" d="M994,-210C994,-210 824,-210 824,-210 818,-210 812,-204 812,-198 812,-198 812,-186 812,-186 812,-180 818,-174 824,-174 824,-174 994,-174 994,-174 1000,-174 1006,-180 1006,-186 1006,-186 1006,-198 1006,-198 1006,-204 1000,-210 994,-210"/>
<text text-anchor="middle" x="909" y="-189.2" font-family="Helvetica,sans-Serif" font-size="11.00" fill="#e6edf3">privatelink.azure&#45;api.net &#160;(APIM)</text>
</g>
<!-- sql_dev -->
<g id="node6" class="node">
<title>sql_dev</title>
<path fill="#3a1d00" stroke="#f0883e" stroke-width="1.2" stroke-dasharray="5,2" d="M485,-129C485,-129 385,-129 385,-129 379,-129 373,-123 373,-117 373,-117 373,-105 373,-105 373,-99 379,-93 385,-93 385,-93 485,-93 485,-93 491,-93 497,-99 497,-105 497,-105 497,-117 497,-117 497,-123 491,-129 485,-129"/>
<text text-anchor="middle" x="435" y="-114.2" font-family="Helvetica,sans-Serif" font-size="11.00" fill="#e6edf3">Azure SQL</text>
<text text-anchor="middle" x="435" y="-102.2" font-family="Helvetica,sans-Serif" font-size="11.00" fill="#e6edf3">(public access OFF)</text>
</g>
<!-- cosmos_dev -->
<g id="node7" class="node">
<title>cosmos_dev</title>
<path fill="#062a26" stroke="#2dd4bf" stroke-width="1.2" stroke-dasharray="5,2" d="M336,-129C336,-129 236,-129 236,-129 230,-129 224,-123 224,-117 224,-117 224,-105 224,-105 224,-99 230,-93 236,-93 236,-93 336,-93 336,-93 342,-93 348,-99 348,-105 348,-105 348,-117 348,-117 348,-123 342,-129 336,-129"/>
<text text-anchor="middle" x="286" y="-114.2" font-family="Helvetica,sans-Serif" font-size="11.00" fill="#e6edf3">Cosmos DB</text>
<text text-anchor="middle" x="286" y="-102.2" font-family="Helvetica,sans-Serif" font-size="11.00" fill="#e6edf3">(public access OFF)</text>
</g>
<!-- appsvc_dev -->
<g id="node8" class="node">
<title>appsvc_dev</title>
<path fill="#0f2a14" stroke="#3fb950" stroke-width="1.2" d="M395,-375C395,-375 237,-375 237,-375 231,-375 225,-369 225,-363 225,-363 225,-351 225,-351 225,-345 231,-339 237,-339 237,-339 395,-339 395,-339 401,-339 407,-345 407,-351 407,-351 407,-363 407,-363 407,-369 401,-375 395,-375"/>
<text text-anchor="middle" x="316" y="-360.2" font-family="Helvetica,sans-Serif" font-size="11.00" fill="#e6edf3">App Service</text>
<text text-anchor="middle" x="316" y="-348.2" font-family="Helvetica,sans-Serif" font-size="11.00" fill="#e6edf3">.NET 10 · MI · VNet&#45;integrated</text>
</g>
<!-- pe_sql_dev -->
<g id="node9" class="node">
<title>pe_sql_dev</title>
<path fill="#1d1233" stroke="#bc8cff" stroke-width="1.2" d="M424,-210C424,-210 380,-210 380,-210 374,-210 368,-204 368,-198 368,-198 368,-186 368,-186 368,-180 374,-174 380,-174 380,-174 424,-174 424,-174 430,-174 436,-180 436,-186 436,-186 436,-198 436,-198 436,-204 430,-210 424,-210"/>
<text text-anchor="middle" x="402" y="-189.2" font-family="Helvetica,sans-Serif" font-size="11.00" fill="#e6edf3">PE → SQL</text>
</g>
<!-- appsvc_dev&#45;&gt;pe_sql_dev -->
<g id="edge3" class="edge">
<title>appsvc_dev&#45;&gt;pe_sql_dev</title>
<path fill="none" stroke="#3fb950" stroke-width="1.5" d="M328.36,-338.9C336.43,-327.36 346.93,-311.62 355,-297 369.05,-271.54 382.44,-241.09 391.3,-219.74"/>
<polygon fill="#3fb950" stroke="#3fb950" stroke-width="1.5" points="394.6,-220.92 395.16,-210.34 388.13,-218.26 394.6,-220.92"/>
<text text-anchor="middle" x="398.5" y="-307.8" font-family="Helvetica,sans-Serif" font-size="9.00" fill="#8b949e">outbound (VNet int.)</text>
</g>
<!-- pe_cosmos_dev -->
<g id="node11" class="node">
<title>pe_cosmos_dev</title>
<path fill="#1d1233" stroke="#bc8cff" stroke-width="1.2" d="M331,-210C331,-210 265,-210 265,-210 259,-210 253,-204 253,-198 253,-198 253,-186 253,-186 253,-180 259,-174 265,-174 265,-174 331,-174 331,-174 337,-174 343,-180 343,-186 343,-186 343,-198 343,-198 343,-204 337,-210 331,-210"/>
<text text-anchor="middle" x="298" y="-189.2" font-family="Helvetica,sans-Serif" font-size="11.00" fill="#e6edf3">PE → Cosmos</text>
</g>
<!-- appsvc_dev&#45;&gt;pe_cosmos_dev -->
<g id="edge4" class="edge">
<title>appsvc_dev&#45;&gt;pe_cosmos_dev</title>
<path fill="none" stroke="#3fb950" stroke-width="1.5" d="M314.11,-338.86C311,-310.69 304.77,-254.34 301.04,-220.52"/>
<polygon fill="#3fb950" stroke="#3fb950" stroke-width="1.5" points="304.5,-219.95 299.92,-210.4 297.54,-220.72 304.5,-219.95"/>
</g>
<!-- pe_sql_dev&#45;&gt;dns_sql -->
<g id="edge8" class="edge">
<title>pe_sql_dev&#45;&gt;dns_sql</title>
<path fill="none" stroke="#39c5cf" stroke-dasharray="1,5" d="M611,-281.84C614.34,-282.61 617.68,-283.33 621,-284 711.08,-302.15 1361.36,-314.6 1448,-284 1460.43,-279.61 1472.51,-273.22 1483.85,-265.83"/>
<polygon fill="#39c5cf" stroke="#39c5cf" points="1486.11,-268.53 1492.39,-260 1482.15,-262.75 1486.11,-268.53"/>
<text text-anchor="middle" x="899" y="-307.8" font-family="Helvetica,sans-Serif" font-size="9.00" fill="#8b949e">VNet link + auto A&#45;record</text>
</g>
<!-- pe_sql_dev&#45;&gt;sql_dev -->
<g id="edge5" class="edge">
<title>pe_sql_dev&#45;&gt;sql_dev</title>
<path fill="none" stroke="#f0883e" stroke-dasharray="5,2" d="M409.16,-173.86C413.48,-163.51 419.09,-150.1 423.97,-138.41"/>
<polygon fill="#f0883e" stroke="#f0883e" points="427.23,-139.68 427.85,-129.11 420.77,-136.99 427.23,-139.68"/>
</g>
<!-- pe_app_dev -->
<g id="node10" class="node">
<title>pe_app_dev</title>
<path fill="#1d1233" stroke="#bc8cff" stroke-width="1.2" d="M215.5,-210C215.5,-210 170.5,-210 170.5,-210 164.5,-210 158.5,-204 158.5,-198 158.5,-198 158.5,-186 158.5,-186 158.5,-180 164.5,-174 170.5,-174 170.5,-174 215.5,-174 215.5,-174 221.5,-174 227.5,-180 227.5,-186 227.5,-186 227.5,-198 227.5,-198 227.5,-204 221.5,-210 215.5,-210"/>
<text text-anchor="middle" x="193" y="-195.2" font-family="Helvetica,sans-Serif" font-size="11.00" fill="#e6edf3">PE → App</text>
<text text-anchor="middle" x="193" y="-183.2" font-family="Helvetica,sans-Serif" font-size="11.00" fill="#e6edf3">(inbound)</text>
</g>
<!-- pe_app_dev&#45;&gt;appsvc_dev -->
<g id="edge2" class="edge">
<title>pe_app_dev&#45;&gt;appsvc_dev</title>
<path fill="none" stroke="#bc8cff" stroke-dasharray="5,2" d="M197.93,-210.22C204.78,-232.05 218.78,-270.08 240,-297 250.88,-310.8 265.64,-323.21 279.27,-333.06"/>
<polygon fill="#bc8cff" stroke="#bc8cff" points="277.36,-335.99 287.56,-338.85 281.36,-330.25 277.36,-335.99"/>
</g>
<!-- pe_cosmos_dev&#45;&gt;cosmos_dev -->
<g id="edge6" class="edge">
<title>pe_cosmos_dev&#45;&gt;cosmos_dev</title>
<path fill="none" stroke="#2dd4bf" stroke-dasharray="5,2" d="M295.4,-173.86C293.86,-163.71 291.87,-150.63 290.12,-139.12"/>
<polygon fill="#2dd4bf" stroke="#2dd4bf" points="293.56,-138.47 288.6,-129.11 286.64,-139.52 293.56,-138.47"/>
</g>
<!-- agent_dev -->
<g id="node12" class="node">
<title>agent_dev</title>
<path fill="#3d2e00" stroke="#e3b341" stroke-width="1.2" d="M583,-375C583,-375 499,-375 499,-375 493,-375 487,-369 487,-363 487,-363 487,-351 487,-351 487,-345 493,-339 499,-339 499,-339 583,-339 583,-339 589,-339 595,-345 595,-351 595,-351 595,-363 595,-363 595,-369 589,-375 583,-375"/>
<text text-anchor="middle" x="541" y="-360.2" font-family="Helvetica,sans-Serif" font-size="11.00" fill="#e6edf3">Self&#45;hosted</text>
<text text-anchor="middle" x="541" y="-348.2" font-family="Helvetica,sans-Serif" font-size="11.00" fill="#e6edf3">ADO Agent (ACI)</text>
</g>
<!-- agent_dev&#45;&gt;acr -->
<g id="edge7" class="edge">
<title>agent_dev&#45;&gt;acr</title>
<path fill="none" stroke="#e3b341" stroke-dasharray="5,2" d="M558.87,-338.86C573.86,-324.49 596.5,-302.78 619.77,-280.47"/>
<polygon fill="#e3b341" stroke="#e3b341" points="622.21,-282.99 627,-273.54 617.36,-277.93 622.21,-282.99"/>
<text text-anchor="middle" x="627" y="-307.8" font-family="Helvetica,sans-Serif" font-size="9.00" fill="#8b949e">AcrPull (image)</text>
</g>
<!-- apim_dev -->
<g id="node13" class="node">
<title>apim_dev</title>
<path fill="#3d0d0c" stroke="#ff7b72" stroke-width="1.2" d="M188,-375C188,-375 84,-375 84,-375 78,-375 72,-369 72,-363 72,-363 72,-351 72,-351 72,-345 78,-339 84,-339 84,-339 188,-339 188,-339 194,-339 200,-345 200,-351 200,-351 200,-363 200,-363 200,-369 194,-375 188,-375"/>
<text text-anchor="middle" x="136" y="-360.2" font-family="Helvetica,sans-Serif" font-size="11.00" fill="#e6edf3">APIM (internal)</text>
<text text-anchor="middle" x="136" y="-348.2" font-family="Helvetica,sans-Serif" font-size="11.00" fill="#e6edf3">private VIP gateway</text>
</g>
<!-- apim_dev&#45;&gt;pe_app_dev -->
<g id="edge1" class="edge">
<title>apim_dev&#45;&gt;pe_app_dev</title>
<path fill="none" stroke="#ff7b72" stroke-width="1.5" d="M141.99,-338.86C151.89,-310.57 171.72,-253.85 183.53,-220.08"/>
<polygon fill="#ff7b72" stroke="#ff7b72" stroke-width="1.5" points="186.92,-220.99 186.92,-210.4 180.31,-218.68 186.92,-220.99"/>
<text text-anchor="middle" x="178" y="-307.8" font-family="Helvetica,sans-Serif" font-size="9.00" fill="#8b949e">private call</text>
</g>
<!-- qa_box -->
<g id="node14" class="node">
<title>qa_box</title>
<path fill="#161b22" stroke="#30363d" stroke-width="1.2" d="M1038.5,-379C1038.5,-379 715.5,-379 715.5,-379 709.5,-379 703.5,-373 703.5,-367 703.5,-367 703.5,-347 703.5,-347 703.5,-341 709.5,-335 715.5,-335 715.5,-335 1038.5,-335 1038.5,-335 1044.5,-335 1050.5,-341 1050.5,-347 1050.5,-347 1050.5,-367 1050.5,-367 1050.5,-373 1044.5,-379 1038.5,-379"/>
<text text-anchor="middle" x="877" y="-366.2" font-family="Helvetica,sans-Serif" font-size="11.00" fill="#e6edf3">Identical topology:</text>
<text text-anchor="middle" x="877" y="-354.2" font-family="Helvetica,sans-Serif" font-size="11.00" fill="#e6edf3">app&#45;service · private&#45;endpoints · ado&#45;agents · apim subnets</text>
<text text-anchor="middle" x="877" y="-342.2" font-family="Helvetica,sans-Serif" font-size="11.00" fill="#e6edf3">App Service + SQL/Cosmos PEs + APIM + self&#45;hosted agent</text>
</g>
<!-- qa_box&#45;&gt;acr -->
<g id="edge9" class="edge">
<title>qa_box&#45;&gt;acr</title>
<path fill="none" stroke="#484f58" stroke-dasharray="1,5" d="M845.29,-334.88C832.76,-326.01 818.3,-315.12 805.39,-303.74"/>
<polygon fill="#484f58" stroke="#484f58" points="807.75,-301.15 798,-297 803.03,-306.32 807.75,-301.15"/>
</g>
<!-- stage_box -->
<g id="node15" class="node">
<title>stage_box</title>
<path fill="#161b22" stroke="#30363d" stroke-width="1.2" d="M1307.5,-375C1307.5,-375 1096.5,-375 1096.5,-375 1090.5,-375 1084.5,-369 1084.5,-363 1084.5,-363 1084.5,-351 1084.5,-351 1084.5,-345 1090.5,-339 1096.5,-339 1096.5,-339 1307.5,-339 1307.5,-339 1313.5,-339 1319.5,-345 1319.5,-351 1319.5,-351 1319.5,-363 1319.5,-363 1319.5,-369 1313.5,-375 1307.5,-375"/>
<text text-anchor="middle" x="1202" y="-360.2" font-family="Helvetica,sans-Serif" font-size="11.00" fill="#e6edf3">Identical topology</text>
<text text-anchor="middle" x="1202" y="-348.2" font-family="Helvetica,sans-Serif" font-size="11.00" fill="#e6edf3">(SKUs bumped: P1v3 / S1+ · alwaysOn)</text>
</g>
<!-- stage_box&#45;&gt;acr -->
<g id="edge10" class="edge">
<title>stage_box&#45;&gt;acr</title>
<path fill="none" stroke="#484f58" stroke-dasharray="1,5" d="M1136.3,-338.98C1088.57,-327.35 1022.22,-312.7 963,-305 946.93,-302.91 843.45,-304.64 808.11,-299.46"/>
<polygon fill="#484f58" stroke="#484f58" points="808.54,-295.96 798,-297 806.89,-302.76 808.54,-295.96"/>
</g>
<!-- prod_box -->
<g id="node16" class="node">
<title>prod_box</title>
<path fill="#161b22" stroke="#30363d" stroke-width="1.2" d="M1575.5,-375C1575.5,-375 1452.5,-375 1452.5,-375 1446.5,-375 1440.5,-369 1440.5,-363 1440.5,-363 1440.5,-351 1440.5,-351 1440.5,-345 1446.5,-339 1452.5,-339 1452.5,-339 1575.5,-339 1575.5,-339 1581.5,-339 1587.5,-345 1587.5,-351 1587.5,-351 1587.5,-363 1587.5,-363 1587.5,-369 1581.5,-375 1575.5,-375"/>
<text text-anchor="middle" x="1514" y="-360.2" font-family="Helvetica,sans-Serif" font-size="11.00" fill="#e6edf3">Identical topology</text>
<text text-anchor="middle" x="1514" y="-348.2" font-family="Helvetica,sans-Serif" font-size="11.00" fill="#e6edf3">(prod SKUs · alwaysOn)</text>
</g>
<!-- prod_box&#45;&gt;acr -->
<g id="edge11" class="edge">
<title>prod_box&#45;&gt;acr</title>
<path fill="none" stroke="#484f58" stroke-dasharray="1,5" d="M1440.29,-341.37C1411.59,-336.13 1378.36,-330.63 1348,-327 1198.97,-309.17 1160.9,-312.71 1011,-305 989.61,-303.9 850.11,-306.77 807.88,-299.62"/>
<polygon fill="#484f58" stroke="#484f58" points="808.56,-296.18 798,-297 806.77,-302.95 808.56,-296.18"/>
</g>
<!-- l_pe -->
<g id="node17" class="node">
<title>l_pe</title>
<path fill="#1d1233" stroke="#bc8cff" stroke-width="1.2" d="M1915,-375C1915,-375 1727,-375 1727,-375 1721,-375 1715,-369 1715,-363 1715,-363 1715,-351 1715,-351 1715,-345 1721,-339 1727,-339 1727,-339 1915,-339 1915,-339 1921,-339 1927,-345 1927,-351 1927,-351 1927,-363 1927,-363 1927,-369 1921,-375 1915,-375"/>
<text text-anchor="middle" x="1821" y="-360.2" font-family="Helvetica,sans-Serif" font-size="11.00" fill="#e6edf3">Private Endpoint (Private Link)</text>
<text text-anchor="middle" x="1821" y="-348.2" font-family="Helvetica,sans-Serif" font-size="11.00" fill="#e6edf3">NIC in your subnet → PaaS instance</text>
</g>
<!-- l_inj -->
<g id="node18" class="node">
<title>l_inj</title>
<path fill="#3d0d0c" stroke="#ff7b72" stroke-width="1.2" d="M1934.5,-214C1934.5,-214 1707.5,-214 1707.5,-214 1701.5,-214 1695.5,-208 1695.5,-202 1695.5,-202 1695.5,-182 1695.5,-182 1695.5,-176 1701.5,-170 1707.5,-170 1707.5,-170 1934.5,-170 1934.5,-170 1940.5,-170 1946.5,-176 1946.5,-182 1946.5,-182 1946.5,-202 1946.5,-202 1946.5,-208 1940.5,-214 1934.5,-214"/>
<text text-anchor="middle" x="1821" y="-201.2" font-family="Helvetica,sans-Serif" font-size="11.00" fill="#e6edf3">VNet Injection</text>
<text text-anchor="middle" x="1821" y="-189.2" font-family="Helvetica,sans-Serif" font-size="11.00" fill="#e6edf3">service deployed INTO a delegated subnet</text>
<text text-anchor="middle" x="1821" y="-177.2" font-family="Helvetica,sans-Serif" font-size="11.00" fill="#e6edf3">(APIM internal, SQL MI, Container Apps)</text>
</g>
<!-- l_pe&#45;&gt;l_inj -->
<!-- l_int -->
<g id="node19" class="node">
<title>l_int</title>
<path fill="#0f2a14" stroke="#3fb950" stroke-width="1.2" d="M1923,-129C1923,-129 1719,-129 1719,-129 1713,-129 1707,-123 1707,-117 1707,-117 1707,-105 1707,-105 1707,-99 1713,-93 1719,-93 1719,-93 1923,-93 1923,-93 1929,-93 1935,-99 1935,-105 1935,-105 1935,-117 1935,-117 1935,-123 1929,-129 1923,-129"/>
<text text-anchor="middle" x="1821" y="-114.2" font-family="Helvetica,sans-Serif" font-size="11.00" fill="#e6edf3">VNet Integration</text>
<text text-anchor="middle" x="1821" y="-102.2" font-family="Helvetica,sans-Serif" font-size="11.00" fill="#e6edf3">App Service OUTBOUND into the VNet</text>
</g>
<!-- l_inj&#45;&gt;l_int -->
<!-- l_paas -->
<g id="node20" class="node">
<title>l_paas</title>
<path fill="#3a1d00" stroke="#f0883e" stroke-width="1.2" stroke-dasharray="5,2" d="M1935,-52C1935,-52 1707,-52 1707,-52 1701,-52 1695,-46 1695,-40 1695,-40 1695,-28 1695,-28 1695,-22 1701,-16 1707,-16 1707,-16 1935,-16 1935,-16 1941,-16 1947,-22 1947,-28 1947,-28 1947,-40 1947,-40 1947,-46 1941,-52 1935,-52"/>
<text text-anchor="middle" x="1821" y="-37.2" font-family="Helvetica,sans-Serif" font-size="11.00" fill="#e6edf3">PaaS (multi&#45;tenant)</text>
<text text-anchor="middle" x="1821" y="-25.2" font-family="Helvetica,sans-Serif" font-size="11.00" fill="#e6edf3">lives OUTSIDE your VNet — dashed border</text>
</g>
<!-- l_int&#45;&gt;l_paas -->
</g>
</svg>
